REM DIRINDEX 1\2\4,1\2\5,1\2\6,1\2\7,1\3\8,1\3\9
REM DIRNAME folder01,folder02,folder03,folder04,folder05,folder06,folder07,folder08,folder09
TITLE ""
FILE "Disc1Track08.mp3" MP3
  TRACK 01 AUDIO
    TITLE "0:"
    INDEX 01 00:00:00
  TRACK 02 AUDIO
    TITLE "4:cjc037_0452"
    INDEX 01 00:00:03
  TRACK 03 AUDIO
    TITLE "0:"
    INDEX 01 00:01:28
  TRACK 04 AUDIO
    TITLE "4:cjc037_0453"
    INDEX 01 00:02:32
  TRACK 05 AUDIO
    TITLE "0:"
    INDEX 01 00:03:68
  TRACK 06 AUDIO
    TITLE "5:cjc037_0454"
    INDEX 01 00:04:48
  TRACK 07 AUDIO
    TITLE "0:"
    INDEX 01 00:09:55
  TRACK 08 AUDIO
    TITLE "6:cjc037_0455"
    INDEX 01 00:13:16
  TRACK 09 AUDIO
    TITLE "0:"
    INDEX 01 00:16:32
  TRACK 10 AUDIO
    TITLE "7:cjc037_0456"
    INDEX 01 00:19:65
  TRACK 11 AUDIO
    TITLE "0:"
    INDEX 01 00:22:36
  TRACK 12 AUDIO
    TITLE "4:cjc037_0457"
    INDEX 01 00:24:71
  TRACK 13 AUDIO
    TITLE "0:"
    INDEX 01 00:26:38
  TRACK 14 AUDIO
    TITLE "5:cjc037_0458"
    INDEX 01 00:27:12
  TRACK 15 AUDIO
    TITLE "0:"
    INDEX 01 00:31:37
  TRACK 16 AUDIO
    TITLE "6:cjc037_0459"
    INDEX 01 00:34:71
  TRACK 17 AUDIO
    TITLE "0:"
    INDEX 01 00:37:69
  TRACK 18 AUDIO
    TITLE "7:cjc037_0460"
    INDEX 01 00:41:28
  TRACK 19 AUDIO
    TITLE "0:"
    INDEX 01 00:43:66
  TRACK 20 AUDIO
    TITLE "4:cjc037_0461"
    INDEX 01 00:46:23
  TRACK 21 AUDIO
    TITLE "0:"
    INDEX 01 00:48:00
  TRACK 22 AUDIO
    TITLE "5:cjc037_0462"
    INDEX 01 00:48:48
  TRACK 23 AUDIO
    TITLE "0:"
    INDEX 01 00:53:35
  TRACK 24 AUDIO
    TITLE "6:cjc037_0463"
    INDEX 01 00:56:67
  TRACK 25 AUDIO
    TITLE "0:"
    INDEX 01 01:00:43
  TRACK 26 AUDIO
    TITLE "7:cjc037_0464"
    INDEX 01 01:04:01
  TRACK 27 AUDIO
    TITLE "0:"
    INDEX 01 01:07:08
  TRACK 28 AUDIO
    TITLE "4:cjc037_0465"
    INDEX 01 01:09:42
  TRACK 29 AUDIO
    TITLE "0:"
    INDEX 01 01:11:05
  TRACK 30 AUDIO
    TITLE "5:cjc037_0466"
    INDEX 01 01:11:58
  TRACK 31 AUDIO
    TITLE "0:"
    INDEX 01 01:14:08
  TRACK 32 AUDIO
    TITLE "6:cjc037_0467"
    INDEX 01 01:17:45
  TRACK 33 AUDIO
    TITLE "0:"
    INDEX 01 01:20:71
  TRACK 34 AUDIO
    TITLE "7:cjc037_0468"
    INDEX 01 01:24:30
  TRACK 35 AUDIO
    TITLE "0:"
    INDEX 01 01:26:72
  TRACK 36 AUDIO
    TITLE "4:cjc037_0469"
    INDEX 01 01:29:31
  TRACK 37 AUDIO
    TITLE "0:"
    INDEX 01 01:31:08
  TRACK 38 AUDIO
    TITLE "5:cjc037_0470"
    INDEX 01 01:31:61
  TRACK 39 AUDIO
    TITLE "0:"
    INDEX 01 01:34:36
  TRACK 40 AUDIO
    TITLE "6:cjc037_0471"
    INDEX 01 01:37:71
  TRACK 41 AUDIO
    TITLE "0:"
    INDEX 01 01:40:35
  TRACK 42 AUDIO
    TITLE "7:cjc037_0472"
    INDEX 01 01:43:70
  TRACK 43 AUDIO
    TITLE "0:"
    INDEX 01 01:45:61
  TRACK 44 AUDIO
    TITLE "4:cjc037_0473"
    INDEX 01 01:48:20
  TRACK 45 AUDIO
    TITLE "0:"
    INDEX 01 01:49:69
  TRACK 46 AUDIO
    TITLE "5:cjc037_0474"
    INDEX 01 01:50:49
  TRACK 47 AUDIO
    TITLE "0:"
    INDEX 01 01:54:74
  TRACK 48 AUDIO
    TITLE "6:cjc037_0475"
    INDEX 01 01:58:32
  TRACK 49 AUDIO
    TITLE "0:"
    INDEX 01 02:01:31
  TRACK 50 AUDIO
    TITLE "7:cjc037_0476"
    INDEX 01 02:04:64
  TRACK 51 AUDIO
    TITLE "0:"
    INDEX 01 02:07:20
  TRACK 52 AUDIO
    TITLE "4:cjc037_0477"
    INDEX 01 02:09:54
  TRACK 53 AUDIO
    TITLE "0:"
    INDEX 01 02:11:33
  TRACK 54 AUDIO
    TITLE "5:cjc037_0478"
    INDEX 01 02:12:09
  TRACK 55 AUDIO
    TITLE "0:"
    INDEX 01 02:16:05
  TRACK 56 AUDIO
    TITLE "6:cjc037_0479"
    INDEX 01 02:19:40
  TRACK 57 AUDIO
    TITLE "0:"
    INDEX 01 02:23:05
  TRACK 58 AUDIO
    TITLE "7:cjc037_0480"
    INDEX 01 02:26:41
  TRACK 59 AUDIO
    TITLE "0:"
    INDEX 01 02:29:31
  TRACK 60 AUDIO
    TITLE "4:cjc037_0481"
    INDEX 01 02:31:63
  TRACK 61 AUDIO
    TITLE "0:"
    INDEX 01 02:33:35
  TRACK 62 AUDIO
    TITLE "5:cjc037_0482"
    INDEX 01 02:34:17
  TRACK 63 AUDIO
    TITLE "0:"
    INDEX 01 02:37:27
  TRACK 64 AUDIO
    TITLE "6:cjc037_0483"
    INDEX 01 02:40:60
  TRACK 65 AUDIO
    TITLE "0:"
    INDEX 01 02:43:57
  TRACK 66 AUDIO
    TITLE "7:cjc037_0484"
    INDEX 01 02:47:17
  TRACK 67 AUDIO
    TITLE "0:"
    INDEX 01 02:49:55
  TRACK 68 AUDIO
    TITLE "4:cjc037_0485"
    INDEX 01 02:52:11
  TRACK 69 AUDIO
    TITLE "0:"
    INDEX 01 02:53:43
  TRACK 70 AUDIO
    TITLE "5:cjc037_0486"
    INDEX 01 02:54:17
  TRACK 71 AUDIO
    TITLE "0:"
    INDEX 01 02:56:38
  TRACK 72 AUDIO
    TITLE "6:cjc037_0487"
    INDEX 01 02:59:73
  TRACK 73 AUDIO
    TITLE "0:"
    INDEX 01 03:02:66
  TRACK 74 AUDIO
    TITLE "7:cjc037_0488"
    INDEX 01 03:06:30
  TRACK 75 AUDIO
    TITLE "0:"
    INDEX 01 03:08:59
